<svg width="107" height="108" viewBox="0 0 107 108" fill="none" xmlns="http://www.w3.org/2000/svg">
<rect x="0.616211" y="1.36035" width="105.279" height="105.279" rx="6.09841" fill="white" stroke="#EEE6E2"/>
<path d="M28.1467 63.4609H33.9619V64.4529H29.3246V67.2675H33.3916V68.2594H29.3246V72.314H28.1467V63.4609ZM35.0558 65.9036H36.0477V67.2551H36.0725C36.3288 66.7343 36.6429 66.3499 37.0149 66.102C37.3868 65.854 37.858 65.7382 38.4284 65.7548V66.8707C38.0068 66.8707 37.6472 66.9286 37.3496 67.0443C37.0521 67.16 36.8123 67.3295 36.6305 67.5527C36.4486 67.7758 36.3164 68.0486 36.2337 68.371C36.1511 68.6851 36.1097 69.0488 36.1097 69.4621V72.314H35.0558V65.9036ZM40.338 64.7504H39.284V63.4609H40.338V64.7504ZM39.284 65.9036H40.338V72.314H39.284V65.9036ZM46.422 68.495C46.4055 68.247 46.3476 68.0114 46.2484 67.7882C46.1575 67.5651 46.0294 67.3749 45.864 67.2179C45.707 67.0526 45.5169 66.9244 45.2937 66.8335C45.0788 66.7343 44.839 66.6847 44.5745 66.6847C44.3017 66.6847 44.0537 66.7343 43.8306 66.8335C43.6156 66.9244 43.4297 67.0526 43.2726 67.2179C43.1155 67.3832 42.9915 67.5775 42.9006 67.8006C42.8097 68.0156 42.756 68.247 42.7394 68.495H46.422ZM47.4387 70.2805C47.2982 70.9996 46.9882 71.5411 46.5088 71.9048C46.0294 72.2685 45.4259 72.4504 44.6985 72.4504C44.186 72.4504 43.7396 72.3677 43.3594 72.2024C42.9874 72.037 42.6733 71.8056 42.4171 71.508C42.1608 71.2104 41.9665 70.855 41.8343 70.4417C41.7103 70.0284 41.64 69.5779 41.6235 69.0902C41.6235 68.6025 41.6979 68.1561 41.8467 67.751C41.9955 67.346 42.2021 66.9947 42.4666 66.6971C42.7394 66.3995 43.0577 66.1681 43.4214 66.0028C43.7934 65.8374 44.1984 65.7548 44.6365 65.7548C45.2069 65.7548 45.678 65.8746 46.05 66.1144C46.4303 66.3458 46.732 66.6434 46.9552 67.0071C47.1866 67.3708 47.3437 67.7676 47.4263 68.1974C47.5173 68.6273 47.5545 69.0364 47.5379 69.4249H42.7394C42.7312 69.706 42.7642 69.9746 42.8386 70.2309C42.913 70.4789 43.0329 70.7021 43.1982 70.9005C43.3635 71.0906 43.5743 71.2435 43.8306 71.3592C44.0868 71.475 44.3885 71.5328 44.7357 71.5328C45.1821 71.5328 45.5458 71.4295 45.8268 71.2228C46.1162 71.0162 46.3063 70.7021 46.3972 70.2805H47.4387ZM48.6304 65.9036H49.6224V66.9203H49.6472C50.0853 66.1433 50.7796 65.7548 51.7302 65.7548C52.1518 65.7548 52.5031 65.8126 52.7842 65.9284C53.0652 66.0441 53.2925 66.2053 53.4661 66.4119C53.6397 66.6186 53.7596 66.8666 53.8257 67.1559C53.9001 67.4369 53.9373 67.751 53.9373 68.0982V72.314H52.8834V67.9742C52.8834 67.5775 52.7676 67.2633 52.5362 67.0319C52.3047 66.8004 51.9865 66.6847 51.5814 66.6847C51.2591 66.6847 50.978 66.7343 50.7383 66.8335C50.5068 66.9327 50.3126 67.0732 50.1555 67.2551C49.9985 67.4369 49.8786 67.6519 49.7959 67.8998C49.7216 68.1396 49.6844 68.4041 49.6844 68.6934V72.314H48.6304V65.9036ZM56.289 69.1646C56.289 69.4621 56.3262 69.7556 56.4006 70.0449C56.4832 70.326 56.6031 70.5781 56.7601 70.8013C56.9255 71.0244 57.1321 71.2022 57.3801 71.3344C57.6364 71.4667 57.9339 71.5328 58.2729 71.5328C58.6283 71.5328 58.93 71.4626 59.178 71.322C59.426 71.1815 59.6285 70.9996 59.7856 70.7765C59.9426 70.545 60.0542 70.2846 60.1203 69.9953C60.1947 69.706 60.2319 69.4125 60.2319 69.115C60.2319 68.8009 60.1947 68.4991 60.1203 68.2098C60.0459 67.9122 59.9261 67.6519 59.7608 67.4287C59.6037 67.2055 59.397 67.0278 59.1408 66.8955C58.8845 66.755 58.5746 66.6847 58.2109 66.6847C57.8554 66.6847 57.5537 66.755 57.3057 66.8955C57.0577 67.036 56.8593 67.222 56.7105 67.4535C56.5618 67.6849 56.4543 67.9494 56.3882 68.247C56.322 68.5446 56.289 68.8504 56.289 69.1646ZM61.2487 72.314H60.1947V71.446H60.1699C59.9963 71.8015 59.7236 72.0577 59.3516 72.2148C58.9796 72.3718 58.5704 72.4504 58.1241 72.4504C57.6281 72.4504 57.1941 72.3594 56.8221 72.1776C56.4584 71.9957 56.1526 71.7519 55.9046 71.446C55.6649 71.1402 55.483 70.7847 55.359 70.3797C55.235 69.9746 55.173 69.5448 55.173 69.0902C55.173 68.6355 55.2309 68.2057 55.3466 67.8006C55.4706 67.3956 55.6525 67.0443 55.8922 66.7467C56.1402 66.4409 56.446 66.2011 56.8097 66.0276C57.1817 65.8457 57.6116 65.7548 58.0993 65.7548C58.2646 65.7548 58.4423 65.7713 58.6324 65.8044C58.8226 65.8374 59.0127 65.8953 59.2028 65.978C59.3929 66.0524 59.5706 66.1557 59.736 66.2879C59.9095 66.4119 60.0542 66.569 60.1699 66.7591H60.1947V63.4609H61.2487V72.314ZM63.5149 70.2929C63.5232 70.5243 63.5769 70.7227 63.6761 70.8881C63.7753 71.0451 63.9034 71.1732 64.0605 71.2724C64.2258 71.3634 64.4077 71.4295 64.606 71.4708C64.8127 71.5121 65.0235 71.5328 65.2384 71.5328C65.4037 71.5328 65.5773 71.5204 65.7592 71.4956C65.941 71.4708 66.1064 71.4254 66.2551 71.3592C66.4122 71.2931 66.5403 71.198 66.6395 71.074C66.7387 70.9418 66.7883 70.7765 66.7883 70.5781C66.7883 70.3053 66.685 70.0986 66.4783 69.9581C66.2717 69.8176 66.0113 69.706 65.6972 69.6233C65.3913 69.5324 65.0566 69.4539 64.6928 69.3877C64.3291 69.3134 63.9902 69.2142 63.6761 69.0902C63.3703 68.9579 63.114 68.7761 62.9074 68.5446C62.7007 68.3131 62.5974 67.9908 62.5974 67.5775C62.5974 67.2551 62.6676 66.9782 62.8082 66.7467C62.9569 66.5153 63.1429 66.3293 63.3661 66.1887C63.5976 66.04 63.8538 65.9325 64.1349 65.8664C64.4242 65.792 64.7094 65.7548 64.9904 65.7548C65.3541 65.7548 65.6889 65.7878 65.9948 65.854C66.3006 65.9118 66.5693 66.0193 66.8007 66.1763C67.0404 66.3251 67.2305 66.5318 67.3711 66.7963C67.5116 67.0526 67.5943 67.3749 67.6191 67.7634H66.5651C66.5486 67.5568 66.4949 67.3873 66.4039 67.2551C66.313 67.1146 66.1973 67.003 66.0568 66.9203C65.9162 66.8376 65.7592 66.7798 65.5856 66.7467C65.4203 66.7054 65.2508 66.6847 65.0772 66.6847C64.9202 66.6847 64.759 66.6971 64.5936 66.7219C64.4366 66.7467 64.2919 66.7922 64.1597 66.8583C64.0274 66.9162 63.92 66.9988 63.8373 67.1063C63.7546 67.2055 63.7133 67.3377 63.7133 67.5031C63.7133 67.6849 63.7753 67.8378 63.8993 67.9618C64.0315 68.0776 64.1969 68.1768 64.3953 68.2594C64.5936 68.3338 64.8168 68.3999 65.0648 68.4578C65.3128 68.5074 65.5608 68.5611 65.8088 68.619C66.0733 68.6769 66.3295 68.7471 66.5775 68.8298C66.8338 68.9124 67.057 69.024 67.2471 69.1646C67.4455 69.2968 67.6025 69.4663 67.7183 69.6729C67.8422 69.8796 67.9042 70.1358 67.9042 70.4417C67.9042 70.8302 67.8216 71.1526 67.6563 71.4088C67.4992 71.6651 67.2884 71.8717 67.0239 72.0288C66.7676 72.1858 66.4742 72.2933 66.1435 72.3512C65.8212 72.4173 65.4988 72.4504 65.1764 72.4504C64.821 72.4504 64.4821 72.4132 64.1597 72.3388C63.8373 72.2644 63.5521 72.1445 63.3041 71.9792C63.0561 71.8056 62.8578 71.5824 62.709 71.3096C62.5602 71.0286 62.4775 70.6897 62.461 70.2929H63.5149ZM75.137 66.8707C75.261 66.788 75.3932 66.6971 75.5337 66.5979C75.6743 66.4987 75.8024 66.3871 75.9181 66.2631C76.0338 66.1392 76.1289 66.0028 76.2033 65.854C76.2777 65.6969 76.3149 65.5233 76.3149 65.3332C76.3149 65.0769 76.224 64.8579 76.0421 64.676C75.8602 64.4859 75.6123 64.3909 75.2981 64.3909C75.0502 64.3909 74.8187 64.4694 74.6038 64.6264C74.3889 64.7752 74.2814 65.0108 74.2814 65.3332C74.2814 65.4655 74.3062 65.5977 74.3558 65.73C74.4137 65.8622 74.4839 65.9945 74.5666 66.1268C74.6493 66.2507 74.7402 66.3747 74.8394 66.4987C74.9386 66.6227 75.0378 66.7467 75.137 66.8707ZM77.406 71.2104C77.1415 71.6237 76.7778 71.9337 76.3149 72.1404C75.8602 72.347 75.3891 72.4504 74.9014 72.4504C74.3062 72.4504 73.8268 72.3594 73.4631 72.1776C73.0994 71.9957 72.8183 71.7767 72.6199 71.5204C72.4215 71.2642 72.2893 70.9996 72.2231 70.7269C72.1653 70.4541 72.1363 70.2268 72.1363 70.0449C72.1363 69.6977 72.1901 69.3919 72.2975 69.1274C72.4133 68.8628 72.5621 68.6273 72.7439 68.4206C72.934 68.2057 73.1531 68.0156 73.4011 67.8502C73.6573 67.6767 73.926 67.5155 74.207 67.3667C74.083 67.1931 73.9632 67.0278 73.8474 66.8707C73.7317 66.7136 73.6243 66.5566 73.5251 66.3995C73.4341 66.2342 73.3597 66.0648 73.3019 65.8912C73.2523 65.7093 73.2275 65.5068 73.2275 65.2836C73.2275 65.0439 73.2688 64.8166 73.3515 64.6016C73.4424 64.3785 73.5705 64.1842 73.7358 64.0189C73.9094 63.8453 74.1202 63.7089 74.3682 63.6097C74.6162 63.5105 74.9014 63.4609 75.2238 63.4609C75.4965 63.4609 75.7611 63.4981 76.0173 63.5725C76.2818 63.6469 76.5133 63.7626 76.7117 63.9197C76.91 64.0685 77.0671 64.2586 77.1828 64.4901C77.3068 64.7132 77.3688 64.9736 77.3688 65.2712C77.3688 65.5357 77.3234 65.7837 77.2324 66.0152C77.1415 66.2383 77.0175 66.445 76.8605 66.6351C76.7034 66.8252 76.5257 66.9988 76.3273 67.1559C76.1289 67.3047 75.9222 67.4411 75.7073 67.5651L77.3068 69.5117C77.4721 69.0488 77.5672 68.5901 77.592 68.1354H78.5963C78.5715 68.3999 78.5426 68.6273 78.5095 68.8174C78.4848 68.9992 78.4476 69.1687 78.398 69.3258C78.3566 69.4828 78.3029 69.6399 78.2368 69.7969C78.1706 69.9457 78.0921 70.1193 78.0012 70.3177L79.7247 72.314H78.3484L77.406 71.2104ZM74.7898 68.0362C74.5831 68.152 74.3847 68.2718 74.1946 68.3958C74.0128 68.5198 73.8516 68.6603 73.711 68.8174C73.5705 68.9744 73.4589 69.1522 73.3763 69.3505C73.2936 69.5407 73.2523 69.768 73.2523 70.0325C73.2523 70.2557 73.2977 70.4623 73.3887 70.6525C73.4879 70.8343 73.616 70.9914 73.773 71.1236C73.9301 71.2476 74.1078 71.3468 74.3062 71.4212C74.5129 71.4956 74.7237 71.5328 74.9386 71.5328C75.3436 71.5328 75.7032 71.4378 76.0173 71.2476C76.3397 71.0575 76.6083 70.8013 76.8233 70.4789L74.7898 68.0362ZM36.3019 79.4609H42.1171V80.4529H37.4798V83.2675H41.5467V84.2594H37.4798V88.314H36.3019V79.4609ZM48.927 88.2892C48.7451 88.3966 48.493 88.4504 48.1706 88.4504C47.8978 88.4504 47.6788 88.376 47.5135 88.2272C47.3564 88.0701 47.2779 87.818 47.2779 87.4708C46.9886 87.818 46.6497 88.0701 46.2612 88.2272C45.8809 88.376 45.4676 88.4504 45.0212 88.4504C44.7319 88.4504 44.455 88.4173 44.1905 88.3512C43.9342 88.285 43.711 88.1817 43.5209 88.0412C43.3308 87.9007 43.1779 87.7188 43.0622 87.4956C42.9547 87.2642 42.901 86.9872 42.901 86.6649C42.901 86.3012 42.963 86.0036 43.0869 85.7721C43.2109 85.5407 43.3721 85.3547 43.5705 85.2142C43.7772 85.0654 44.0086 84.9538 44.2649 84.8794C44.5294 84.805 44.798 84.743 45.0708 84.6934C45.3601 84.6355 45.6329 84.5942 45.8892 84.5694C46.1537 84.5363 46.3851 84.495 46.5835 84.4454C46.7819 84.3875 46.939 84.309 47.0547 84.2098C47.1704 84.1024 47.2283 83.9494 47.2283 83.751C47.2283 83.5196 47.1828 83.3336 47.0919 83.1931C47.0092 83.0526 46.8976 82.9451 46.7571 82.8707C46.6249 82.7963 46.4719 82.7467 46.2983 82.7219C46.133 82.6971 45.9677 82.6847 45.8024 82.6847C45.356 82.6847 44.984 82.7715 44.6864 82.9451C44.3889 83.1104 44.2277 83.4287 44.2029 83.8998H43.1489C43.1655 83.5031 43.2481 83.1683 43.3969 82.8955C43.5457 82.6227 43.7441 82.4037 43.9921 82.2383C44.2401 82.0648 44.5211 81.9408 44.8352 81.8664C45.1576 81.792 45.5007 81.7548 45.8644 81.7548C46.1537 81.7548 46.4389 81.7754 46.7199 81.8168C47.0092 81.8581 47.2696 81.9449 47.5011 82.0772C47.7325 82.2011 47.9185 82.3789 48.059 82.6103C48.1996 82.8418 48.2698 83.1435 48.2698 83.5155V86.8137C48.2698 87.0616 48.2822 87.2435 48.307 87.3592C48.3401 87.475 48.4393 87.5328 48.6046 87.5328C48.6955 87.5328 48.803 87.5121 48.927 87.4708V88.2892ZM47.2159 85.0034C47.0836 85.1026 46.91 85.177 46.6951 85.2266C46.4802 85.2679 46.2529 85.3051 46.0132 85.3382C45.7817 85.3629 45.5461 85.396 45.3064 85.4373C45.0667 85.4704 44.8518 85.5283 44.6617 85.6109C44.4715 85.6936 44.3145 85.8135 44.1905 85.9705C44.0748 86.1193 44.0169 86.326 44.0169 86.5905C44.0169 86.7641 44.05 86.9129 44.1161 87.0368C44.1905 87.1526 44.2814 87.2476 44.3889 87.322C44.5046 87.3964 44.6369 87.4502 44.7856 87.4832C44.9344 87.5163 45.0915 87.5328 45.2568 87.5328C45.604 87.5328 45.9016 87.4873 46.1496 87.3964C46.3975 87.2972 46.6001 87.1774 46.7571 87.0368C46.9142 86.8881 47.0299 86.731 47.1043 86.5657C47.1787 86.3921 47.2159 86.2309 47.2159 86.0821V85.0034ZM49.9079 81.9036H50.8998V82.8459H50.9246C51.4041 82.1185 52.0943 81.7548 52.9953 81.7548C53.3921 81.7548 53.7516 81.8374 54.074 82.0028C54.3964 82.1681 54.6237 82.4491 54.756 82.8459C54.9709 82.4987 55.2519 82.2301 55.5991 82.04C55.9546 81.8498 56.3431 81.7548 56.7647 81.7548C57.087 81.7548 57.3763 81.792 57.6326 81.8664C57.8971 81.9325 58.1203 82.04 58.3022 82.1887C58.4923 82.3375 58.6369 82.5318 58.7361 82.7715C58.8436 83.003 58.8973 83.284 58.8973 83.6147V88.314H57.8434V84.1106C57.8434 83.9122 57.8269 83.7263 57.7938 83.5527C57.7607 83.3791 57.6987 83.2303 57.6078 83.1063C57.5169 82.974 57.3887 82.8707 57.2234 82.7963C57.0664 82.7219 56.8597 82.6847 56.6035 82.6847C56.0827 82.6847 55.6735 82.8335 55.3759 83.1311C55.0784 83.4287 54.9296 83.8254 54.9296 84.3214V88.314H53.8756V84.1106C53.8756 83.904 53.855 83.7139 53.8136 83.5403C53.7806 83.3667 53.7186 83.2179 53.6276 83.0939C53.5367 82.9616 53.4127 82.8624 53.2557 82.7963C53.1069 82.7219 52.9126 82.6847 52.6729 82.6847C52.3671 82.6847 52.1025 82.7467 51.8794 82.8707C51.6644 82.9947 51.4867 83.1435 51.3462 83.3171C51.2139 83.4907 51.1147 83.6725 51.0486 83.8626C50.9907 84.0445 50.9618 84.1974 50.9618 84.3214V88.314H49.9079V81.9036ZM61.5946 80.7504H60.5407V79.4609H61.5946V80.7504ZM60.5407 81.9036H61.5946V88.314H60.5407V81.9036ZM63.2894 79.4609H64.3433V88.314H63.2894V79.4609ZM68.4931 89.1695C68.3691 89.4836 68.2451 89.7481 68.1211 89.9631C68.0054 90.178 67.8731 90.3516 67.7243 90.4838C67.5838 90.6244 67.4226 90.7235 67.2407 90.7814C67.0671 90.8475 66.8646 90.8806 66.6332 90.8806C66.5092 90.8806 66.3852 90.8723 66.2612 90.8558C66.1372 90.8393 66.0173 90.8103 65.9016 90.769V89.8019C65.9925 89.8432 66.0959 89.8763 66.2116 89.9011C66.3356 89.9341 66.4389 89.9507 66.5216 89.9507C66.7365 89.9507 66.9142 89.8969 67.0547 89.7895C67.2035 89.6903 67.3151 89.5456 67.3895 89.3555L67.8235 88.2768L65.2817 81.9036H66.472L68.3443 87.1484H68.3691L70.167 81.9036H71.2829L68.4931 89.1695Z" fill="#4E5356"/>
<path fill-rule="evenodd" clip-rule="evenodd" d="M42.6034 33.2588C41.0752 33.2588 39.582 32.3517 38.4029 30.7058C37.3571 29.246 36.7324 27.4247 36.7324 25.8367C36.7324 25.5822 36.9377 25.3752 37.1939 25.3752C37.4483 25.3752 37.6553 25.5823 37.6553 25.8367C37.6553 28.7002 39.9855 32.3341 42.6035 32.3341C45.2214 32.3341 47.5518 28.7003 47.5518 25.8367C47.5518 25.7735 47.5518 25.7121 47.5483 25.6507C47.5395 25.3963 47.7378 25.1822 47.9922 25.1717C48.2466 25.1629 48.4607 25.3612 48.4712 25.6156C48.4729 25.6893 48.4747 25.7612 48.4747 25.8349C48.4747 27.4229 47.8501 29.2441 46.8043 30.7041C45.6252 32.3499 44.1337 33.2571 42.6037 33.2571L42.6034 33.2588Z" fill="#4E5356"/>
<path fill-rule="evenodd" clip-rule="evenodd" d="M42.2998 19.5309C41.6611 19.5309 40.9312 19.7064 40.2293 20.0573C38.5888 20.8802 37.0745 22.6787 37.5535 25.3195C41.7506 24.6422 43.8542 21.7734 43.8772 21.7436C43.9807 21.598 44.1614 21.526 44.3386 21.5594C44.5158 21.5927 44.6562 21.7261 44.7001 21.8998C44.7088 21.9349 45.6124 25.3722 47.7408 25.202C47.8285 24.3493 47.6197 21.6577 46.4477 20.5206C45.916 20.0047 45.2563 19.9223 44.4316 20.2679C44.2421 20.3469 44.0245 20.2925 43.8947 20.1328C43.5666 19.731 42.9858 19.5292 42.2997 19.5292L42.2998 19.5309ZM37.1939 26.2983C36.9851 26.2983 36.7991 26.1562 36.7465 25.9492C36.3675 24.4419 36.5201 22.9873 37.1851 21.7451C37.7484 20.6923 38.6836 19.801 39.8171 19.2324C41.5647 18.3569 43.3772 18.399 44.3754 19.3044C45.7282 18.8552 46.6301 19.3833 47.1583 19.929C48.6778 21.4976 48.8778 25.0632 48.5391 25.8034C48.4795 25.935 48.3602 26.0315 48.218 26.0631C46.8652 26.3597 45.6633 25.7473 44.7439 24.291C44.4438 23.8155 44.2227 23.3259 44.0701 22.9346C43.0963 23.9558 40.8451 25.8561 37.2479 26.2965C37.2303 26.2983 37.211 26.3 37.1917 26.3L37.1939 26.2983Z" fill="#4E5356"/>
<path fill-rule="evenodd" clip-rule="evenodd" d="M40.4234 35.5507C40.1689 35.5507 39.9619 35.3437 39.9619 35.0893V32.0801C39.9619 31.8257 40.169 31.6187 40.4234 31.6187C40.6778 31.6187 40.8848 31.8257 40.8848 32.0801V35.0893C40.8848 35.3437 40.6778 35.5507 40.4234 35.5507ZM44.7818 35.5507C44.5274 35.5507 44.3204 35.3437 44.3204 35.0893V32.0801C44.3204 31.8257 44.5274 31.6187 44.7818 31.6187C45.0362 31.6187 45.2433 31.8257 45.2433 32.0801V35.0893C45.2433 35.3437 45.0362 35.5507 44.7818 35.5507Z" fill="#4E5356"/>
<path fill-rule="evenodd" clip-rule="evenodd" d="M63.3993 20.889C60.6709 20.889 58.4511 23.1086 58.4511 25.8372C58.4511 28.7007 60.7795 32.3346 63.3993 32.3346C66.0172 32.3346 68.3476 28.7008 68.3476 25.8372C68.3476 23.1087 66.128 20.889 63.3993 20.889ZM63.3993 33.2591C61.8711 33.2591 60.3779 32.3519 59.1987 30.7061C58.153 29.2462 57.5283 27.4249 57.5283 25.8369C57.5283 22.5996 60.162 19.9661 63.3992 19.9661C66.6364 19.9661 69.27 22.5998 69.27 25.8369C69.27 27.4249 68.6454 29.2461 67.5996 30.7061C66.4205 32.3519 64.9294 33.2591 63.3993 33.2591Z" fill="#4E5356"/>
<path fill-rule="evenodd" clip-rule="evenodd" d="M57.9898 26.2982C57.76 26.2982 57.5617 26.1263 57.5319 25.8929C57.5003 25.6403 57.681 25.4104 57.9337 25.3788C62.408 24.8314 64.6504 21.7748 64.6733 21.745C64.7768 21.5994 64.9575 21.5274 65.133 21.5608C65.3084 21.5941 65.4506 21.7275 65.4944 21.9012C65.5225 22.0117 66.2314 24.6244 68.558 24.112C68.8072 24.0576 69.0528 24.2155 69.1072 24.4647C69.1634 24.7139 69.0055 24.9595 68.7545 25.0139C67.4228 25.3069 66.2735 24.8876 65.4348 23.8015C65.1997 23.4962 65.0225 23.1804 64.8926 22.9049C63.9346 23.919 61.6746 25.8509 58.0444 26.2948C58.0251 26.2966 58.0058 26.2983 57.9882 26.2983L57.9898 26.2982Z" fill="#4E5356"/>
<path fill-rule="evenodd" clip-rule="evenodd" d="M61.2202 35.5507C60.9658 35.5507 60.7588 35.3437 60.7588 35.0893V32.0801C60.7588 31.8257 60.9658 31.6187 61.2202 31.6187C61.4746 31.6187 61.6817 31.8257 61.6817 32.0801V35.0893C61.6817 35.3437 61.4746 35.5507 61.2202 35.5507ZM65.5787 35.5507C65.3243 35.5507 65.1173 35.3437 65.1173 35.0893V32.0801C65.1173 31.8257 65.3243 31.6187 65.5787 31.6187C65.8331 31.6187 66.0402 31.8257 66.0402 32.0801V35.0893C66.0402 35.3437 65.8331 35.5507 65.5787 35.5507Z" fill="#4E5356"/>
<path fill-rule="evenodd" clip-rule="evenodd" d="M57.7154 47.9999C57.4609 47.9999 57.2539 47.7928 57.2539 47.5384V42.9168C57.2539 42.6623 57.461 42.4553 57.7154 42.4553C57.9698 42.4553 58.1768 42.6624 58.1768 42.9168V47.5384C58.1768 47.7929 57.9698 47.9999 57.7154 47.9999Z" fill="#9D4F2A"/>
<path fill-rule="evenodd" clip-rule="evenodd" d="M69.0816 47.9999C68.8271 47.9999 68.6201 47.7928 68.6201 47.5384V41.315C68.6201 41.0605 68.8272 40.8535 69.0816 40.8535C69.336 40.8535 69.543 41.0606 69.543 41.315V47.5384C69.543 47.7928 69.336 47.9999 69.0816 47.9999Z" fill="#4E5356"/>
<path fill-rule="evenodd" clip-rule="evenodd" d="M54.6249 47.0748H72.2379V41.3127C72.2379 38.135 69.6534 35.5505 66.4758 35.5505H60.326C58.6924 35.5505 57.1606 36.2401 56.0763 37.4315C56.9852 37.5666 57.7906 38.1912 58.245 39.1791C59.1908 41.2372 58.4202 44.4498 54.6249 47.0748ZM72.6992 47.9977H54.1021C53.8477 47.9977 53.6406 47.7907 53.6406 47.5363V46.8713C53.6406 46.7151 53.7178 46.5712 53.8477 46.4853C57.4183 44.1288 58.2079 41.3106 57.4061 39.5633C56.9639 38.6018 56.1059 38.142 55.2198 38.3947C55.0356 38.4474 54.8373 38.3807 54.7215 38.2245C54.6074 38.0701 54.6004 37.8613 54.7039 37.6999C55.9479 35.775 58.0482 34.6257 60.3241 34.6257H66.4739C70.1604 34.6257 73.1591 37.6244 73.1591 41.311V47.5344C73.1591 47.7888 72.9521 47.9959 72.6977 47.9959L72.6992 47.9977Z" fill="#4E5356"/>
<path fill-rule="evenodd" clip-rule="evenodd" d="M33.7646 47.0749H51.3775C47.5823 44.4482 46.812 41.2373 47.7577 39.1791C48.2122 38.1912 49.0176 37.5666 49.9265 37.4315C48.8421 36.2401 47.3103 35.5505 45.6768 35.5505H39.527C36.3493 35.5505 33.7648 38.1351 33.7648 41.3127L33.7646 47.0749ZM51.9004 47.9978H33.3032C33.0488 47.9978 32.8418 47.7908 32.8418 47.5364V41.3129C32.8418 37.6264 35.8405 34.6277 39.527 34.6277H45.6768C47.9508 34.6277 50.0529 35.777 51.2952 37.7018C51.4005 37.8632 51.3935 38.072 51.2794 38.2265C51.1654 38.3809 50.9671 38.4493 50.7811 38.3967C49.895 38.144 49.037 38.6037 48.5948 39.5653C47.7929 41.3129 48.5825 44.1308 52.1532 46.4872C52.2831 46.5732 52.3603 46.7171 52.3603 46.8732V47.5382C52.3603 47.7927 52.1532 47.9997 51.8988 47.9997L51.9004 47.9978Z" fill="#4E5356"/>
<path fill-rule="evenodd" clip-rule="evenodd" d="M36.9195 47.9999C36.665 47.9999 36.458 47.7928 36.458 47.5384V41.315C36.458 41.0605 36.6651 40.8535 36.9195 40.8535C37.1739 40.8535 37.3809 41.0606 37.3809 41.315V47.5384C37.3809 47.7928 37.1739 47.9999 36.9195 47.9999Z" fill="#4E5356"/>
<path fill-rule="evenodd" clip-rule="evenodd" d="M48.2866 47.9999C48.0322 47.9999 47.8252 47.7928 47.8252 47.5384V42.9168C47.8252 42.6623 48.0322 42.4553 48.2866 42.4553C48.541 42.4553 48.7481 42.6624 48.7481 42.9168V47.5384C48.7481 47.7929 48.541 47.9999 48.2866 47.9999Z" fill="#9D4F2A"/>
<path fill-rule="evenodd" clip-rule="evenodd" d="M50.3071 38.3266C50.1948 38.3266 50.0843 38.3371 49.9755 38.3599C49.1526 38.5319 48.5156 39.3267 48.3559 40.3882C48.2261 41.2533 48.1822 44.2537 53.0023 47.0065C57.8221 44.2535 57.7803 41.2516 57.6487 40.3882C57.489 39.3267 56.8521 38.5301 56.0274 38.3599C55.122 38.1722 54.1622 38.7687 53.3919 39.997C53.3077 40.1321 53.1603 40.2128 53.0006 40.2128C52.841 40.2128 52.6936 40.1303 52.6094 39.997C51.9338 38.9179 51.1092 38.3265 50.3055 38.3265L50.3071 38.3266ZM53.0022 47.9998C52.925 47.9998 52.8478 47.9805 52.7794 47.9419C47.2135 44.866 47.2872 41.2777 47.4435 40.2514C47.6628 38.8038 48.5823 37.7071 49.7877 37.4562C50.9282 37.2193 52.074 37.7598 53.0022 38.9476C53.9304 37.7598 55.0779 37.2211 56.2166 37.4562C57.4221 37.7071 58.3432 38.8038 58.5608 40.2514C58.717 41.2778 58.7907 44.8658 53.2232 47.9419C53.1547 47.9805 53.0775 47.9998 53.0003 47.9998H53.0022Z" fill="#9D4F2A"/>
</svg>
